<?xml version='1.0' encoding='UTF-8' standalone='no'?>
<svg baseProfile="tiny" height="4.8213mm" version="1.2" viewBox="0 0 41 41" width="4.8213mm" xmlns="http://www.w3.org/2000/svg" xmlns:xlink="http://www.w3.org/1999/xlink">
    <style id="current-color-scheme" type="text/css">.ColorScheme-Text {color:#f67400;}</style>
    <title>Qt SVG Document</title>
    <desc>Auto-generated by Klassy window decoration</desc>
    <defs/>
    <g fill="none" fill-rule="evenodd" stroke="black" stroke-linecap="square" stroke-linejoin="bevel" stroke-width="1">
        <g fill="#f67400" fill-opacity="0.349996" font-family="Noto Sans" font-size="30" font-style="normal" font-weight="400" stroke="none" transform="matrix(2.27778,0,0,2.27778,17.5,18.5)">
            <rect height="2.63415" width="2.63415" x="0" y="0"/>
        </g>
        <g fill="#f67400" fill-opacity="0.809995" font-family="Noto Sans" font-size="30" font-style="normal" font-weight="400" stroke="none" transform="matrix(2.27778,0,0,2.27778,17.5,18.5)">
            <path d="M0,-0.439463 L2.63415,-0.439463 L3.07361,0 L3.07361,2.63415 L2.63415,3.07361 L0,3.07361 L-0.439463,2.63415 L-0.439463,0 L0,-0.439463 M0.439463,0 L0.439463,2.63415 L0,2.63415 L0,2.19468 L2.63415,2.19468 L2.63415,2.63415 L2.19468,2.63415 L2.19468,0 L2.63415,0 L2.63415,0.439463 L0,0.439463 L0,0 L0.439463,0" fill-rule="nonzero" vector-effect="none"/>
            <path d="M2.19468,0.439463 L2.19468,-3.07361 L5.70776,0.439463 L2.19468,0.439463" fill-rule="evenodd" vector-effect="none"/>
            <path d="M0.439463,2.19468 L-3.07361,2.19468 L0.439463,5.70776 L0.439463,2.19468" fill-rule="evenodd" vector-effect="none"/>
        </g>
    </g>
</svg>
