<?xml version="1.0" encoding="UTF-8" standalone="no"?>
<svg width="4.23333mm" height="4.23333mm"
 viewBox="0 0 28 28"
 xmlns="http://www.w3.org/2000/svg" xmlns:xlink="http://www.w3.org/1999/xlink" version="1.2" baseProfile="tiny">
<title>Qt SVG Document</title>
<desc>Auto-generated by Klassy window decoration</desc>
<defs>
</defs>
<g fill="none" stroke="black" stroke-width="1" fill-rule="evenodd" stroke-linecap="square" stroke-linejoin="bevel" >

<g fill="none" stroke="#3999e6" stroke-opacity="1" stroke-width="1.001" stroke-linecap="square" stroke-linejoin="bevel" transform="matrix(1.55556,0,0,1.55556,0,0)"
font-family="Noto Sans" font-size="23.3333" font-weight="400" font-style="normal" 
>
</g>

<g fill="none" stroke="#3999e6" stroke-opacity="1" stroke-width="1.287" stroke-linecap="butt" stroke-linejoin="miter" stroke-miterlimit="2" transform="matrix(1.55556,0,0,1.55556,0,0)"
font-family="Noto Sans" font-size="23.3333" font-weight="400" font-style="normal" 
>
</g>

<g fill="none" stroke="#3999e6" stroke-opacity="1" stroke-width="1.287" stroke-linecap="butt" stroke-linejoin="miter" stroke-miterlimit="2" transform="matrix(1.55556,0,0,1.55556,0,0)"
font-family="Noto Sans" font-size="23.3333" font-weight="400" font-style="normal" 
>
</g>

<g fill="none" stroke="#3999e6" stroke-opacit        <g class="ColorScheme-Text" fill="currentColor" fill-opacity="1" font-family="Noto Sans" font-size="23.3333" font-style="normal" font-weight="400" stroke="none" transform="matrix(1.55556,0,0,1.55556,0,1)">
            <path d="M3.21429,11.5708 L14.7857,11.5708 L14.7857,12.8578 L3.21429,12.8578 L3.21429,11.5708" fill-rule="nonzero" vector-effect="none"/>
        </g>
    </g>
</svg>
56,0,0,1.55556,0,1)"
font-family="Noto Sans" font-size="23.3333" font-weight="400" font-style="normal" 
>
</g>

<g fill="none" stroke="#3999e6" stroke-opacity="1" stroke-width="1.287" stroke-linecap="butt" stroke-linejoin="miter" stroke-miterlimit="2" transform="matrix(1.55556,0,0,1.55556,0,1)"
font-family="Noto Sans" font-size="23.3333" font-weight="400" font-style="normal" 
>
</g>

<g fill="#3999e6" fill-opacity="1" stroke="none" transform="matrix(1.55556,0,0,1.55556,0,1)"
font-family="Noto Sans" font-size="23.3333" font-weight="400" font-style="normal" 
>
<path vector-effect="none" fill-rule="nonzero" d="M3.21429,3.8565 L14.7857,3.8565 L14.7857,5.1435 L3.21429,5.1435 L3.21429,3.8565"/>
</g>

<g fill="none" stroke="#3999e6" stroke-opacity="1" stroke-width="1.287" stroke-linecap="butt" stroke-linejoin="miter" stroke-miterlimit="2" transform="matrix(1.55556,0,0,1.55556,0,1)"
font-family="Noto Sans" font-size="23.3333" font-weight="400" font-style="normal" 
>
</g>

<g fill="none" stroke="#3999e6" stroke-opacity="1" stroke-width="1.287" stroke-linecap="butt" stroke-linejoin="miter" stroke-miterlimit="2" transform="matrix(1.55556,0,0,1.55556,0,1)"
font-family="Noto Sans" font-size="23.3333" font-weight="400" font-style="normal" 
>
</g>

<g fill="#3999e6" fill-opacity="1" stroke="none" transform="matrix(1.55556,0,0,1.55556,0,1)"
font-family="Noto Sans" font-size="23.3333" font-weight="400" font-style="normal" 
>
<path vector-effect="none" fill-rule="nonzero" d="M3.21429,7.71364 L14.7857,7.71364 L14.7857,9.00064 L3.21429,9.00064 L3.21429,7.71364"/>
</g>

<g fill="none" stroke="#3999e6" stroke-opacity="1" stroke-width="1.287" stroke-linecap="butt" stroke-linejoin="miter" stroke-miterlimit="2" transform="matrix(1.55556,0,0,1.55556,0,1)"
font-family="Noto Sans" font-size="23.3333" font-weight="400" font-style="normal" 
>
</g>

<g fill="none" stroke="#3999e6" stroke-opacity="1" stroke-width="1.287" stroke-linecap="butt" stroke-linejoin="miter" stroke-miterlimit="2" transform="matrix(1.55556,0,0,1.55556,0,1)"
font-family="Noto Sans" font-size="23.3333" font-weight="400" font-style="normal" 
>
</g>

<g fill="#3999e6" fill-opacity="1" stroke="none" transform="matrix(1.55556,0,0,1.55556,0,1)"
font-family="Noto Sans" font-size="23.3333" font-weight="400" font-style="normal" 
>
<path vector-effect="none" fill-rule="nonzero" d="M3.21429,11.5708 L14.7857,11.5708 L14.7857,12.8578 L3.21429,12.8578 L3.21429,11.5708"/>
</g>

<g fill="none" stroke="#3999e6" stroke-opacity="1" stroke-width="1.287" stroke-linecap="butt" stroke-linejoin="miter" stroke-miterlimit="2" transform="matrix(1.55556,0,0,1.55556,0,1)"
font-family="Noto Sans" font-size="23.3333" font-weight="400" font-style="normal" 
>
</g>

<g fill="none" stroke="#3999e6" stroke-opacity="1" stroke-width="1.287" stroke-linecap="butt" stroke-linejoin="miter" stroke-miterlimit="2" transform="matrix(1.55556,0,0,1.55556,0,0)"
font-family="Noto Sans" font-size="23.3333" font-weight="400" font-style="normal" 
>
</g>

<g fill="none" stroke="#3999e6" stroke-opacity="1" stroke-width="1.001" stroke-linecap="square" stroke-linejoin="bevel" transform="matrix(1.55556,0,0,1.55556,0,0)"
font-family="Noto Sans" font-size="23.3333" font-weight="400" font-style="normal" 
>
</g>
</g>
</svg>
