<?xml version='1.0' encoding='UTF-8' standalone='no'?>
<svg baseProfile="tiny" height="5.29167mm" version="1.2" viewBox="0 0 20 20" width="5.29167mm" xmlns="http://www.w3.org/2000/svg" xmlns:xlink="http://www.w3.org/1999/xlink">
    <style id="current-color-scheme" type="text/css">.ColorScheme-Text {color:#232629;}</style>
    <title>Qt SVG Document</title>
    <desc>Auto-generated by klassy-settings</desc>
    <defs/>
    <g fill="none" fill-rule="evenodd" stroke="black" stroke-linecap="square" stroke-linejoin="bevel" stroke-width="1">
        <g class="ColorScheme-Text" fill="#da0016" fill-opacity="0.719997" font-family="Noto Sans" font-size="13.3333" font-style="normal" font-weight="400" stroke="none" transform="matrix(1.25,0,0,1.25,0,0)">
            <path d="M2,3.2 C2,2.53726 2.53726,2 3.2,2 L12.8,2 C13.4627,2 14,2.53726 14,3.2 L14,12.8 C14,13.4627 13.4627,14 12.8,14 L3.2,14 C2.53726,14 2,13.4627 2,12.8 L2,3.2 Z " fill-rule="evenodd" vector-effect="none"/>
        </g>
        <g class="ColorScheme-Text" fill="#ffffff" fill-opacity="1" font-family="Noto Sans" font-size="13.3333" font-style="normal" font-weight="400" stroke="none" transform="matrix(1.11111,0,0,1.11111,0,0)">
            <path d="M5.31852,4.68148 L13.3185,12.6815 C13.4944,12.8574 13.4944,13.1426 13.3185,13.3185 C13.1426,13.4944 12.8574,13.4944 12.6815,13.3185 L4.68148,5.31852 C4.50557,5.1426 4.50557,4.8574 4.68148,4.68148 C4.8574,4.50557 5.1426,4.50557 5.31852,4.68148 Z " fill-rule="nonzero" vector-effect="none"/>
            <path d="M13.3185,5.31852 L5.31852,13.3185 C5.1426,13.4944 4.8574,13.4944 4.68148,13.3185 C4.50557,13.1426 4.50557,12.8574 4.68148,12.6815 L12.6815,4.68148 C12.8574,4.50557 13.1426,4.50557 13.3185,4.68148 C13.4944,4.8574 13.4944,5.1426 13.3185,5.31852 Z " fill-rule="nonzero" vector-effect="none"/>
        </g>
    </g>
</svg>
