<?xml version='1.0' encoding='UTF-8' standalone='no'?>
<svg baseProfile="tiny" height="5.89643mm" version="1.2" viewBox="0 0 39 39" width="5.89643mm" xmlns="http://www.w3.org/2000/svg" xmlns:xlink="http://www.w3.org/1999/xlink">
    <style id="current-color-scheme" type="text/css">.ColorScheme-Text {color:#f67400;}</style>
    <title>Qt SVG Document</title>
    <desc>Auto-generated by Klassy window decoration</desc>
    <defs/>
    <g fill="none" fill-rule="evenodd" stroke="black" stroke-linecap="square" stroke-linejoin="bevel" stroke-width="1">
        <g fill="#f67400" fill-opacity="0.349996" font-family="Noto Sans" font-size="23.3333" font-style="normal" font-weight="400" stroke="none" transform="matrix(2.16667,0,0,2.16667,16.5,17.5)">
            <rect height="2.76923" width="2.76923" x="0" y="0"/>
        </g>
        <g fill="#f67400" fill-opacity="0.809995" font-family="Noto Sans" font-size="23.3333" font-style="normal" font-weight="400" stroke="none" transform="matrix(2.16667,0,0,2.16667,16.5,17.5)">
            <path d="M0,-0.462 L2.76923,-0.462 L3.23123,0 L3.23123,2.76923 L2.76923,3.23123 L0,3.23123 L-0.462,2.76923 L-0.462,0 L0,-0.462 M0.462,0 L0.462,2.76923 L0,2.76923 L0,2.30723 L2.76923,2.30723 L2.76923,2.76923 L2.30723,2.76923 L2.30723,0 L2.76923,0 L2.76923,0.462 L0,0.462 L0,0 L0.462,0" fill-rule="nonzero" vector-effect="none"/>
            <path d="M2.30723,0.462 L2.30723,-3.23123 L6.00046,0.462 L2.30723,0.462" fill-rule="evenodd" vector-effect="none"/>
            <path d="M0.462,2.30723 L-3.23123,2.30723 L0.462,6.00046 L0.462,2.30723" fill-rule="evenodd" vector-effect="none"/>
        </g>
    </g>
</svg>
