<?xml version='1.0' encoding='UTF-8' standalone='no'?>
<svg baseProfile="tiny" height="8.46667mm" version="1.2" viewBox="0 0 88 88" width="8.46667mm" xmlns="http://www.w3.org/2000/svg" xmlns:xlink="http://www.w3.org/1999/xlink">
    <style id="current-color-scheme" type="text/css">.ColorScheme-Text {color:#232629;}</style>
    <title>Qt SVG Document</title>
    <desc>Auto-generated by klassy-settings</desc>
    <defs/>
    <g fill="none" fill-rule="evenodd" stroke="black" stroke-linecap="square" stroke-linejoin="bevel" stroke-width="1">
        <g class="ColorScheme-Text" fill="#da0016" fill-opacity="0.719997" font-family="Noto Sans" font-size="36.6667" font-style="normal" font-weight="400" stroke="none" transform="matrix(5.5,0,0,5.5,0,0)">
            <path d="M2,3.2 C2,2.53726 2.53726,2 3.2,2 L12.8,2 C13.4627,2 14,2.53726 14,3.2 L14,12.8 C14,13.4627 13.4627,14 12.8,14 L3.2,14 C2.53726,14 2,13.4627 2,12.8 L2,3.2 Z " fill-rule="evenodd" vector-effect="none"/>
        </g>
        <g class="ColorScheme-Text" fill="#ffffff" fill-opacity="1" font-family="Noto Sans" font-size="36.6667" font-style="normal" font-weight="400" stroke="none" transform="matrix(4.88889,0,0,4.88889,0,0)">
            <path d="M5.50673,4.49327 L13.5067,12.4933 C13.7866,12.7731 13.7866,13.2269 13.5067,13.5067 C13.2269,13.7866 12.7731,13.7866 12.4933,13.5067 L4.49327,5.50673 C4.21341,5.22687 4.21341,4.77313 4.49327,4.49327 C4.77313,4.21341 5.22687,4.21341 5.50673,4.49327 Z " fill-rule="nonzero" vector-effect="none"/>
            <path d="M13.5067,5.50673 L5.50673,13.5067 C5.22687,13.7866 4.77313,13.7866 4.49327,13.5067 C4.21341,13.2269 4.21341,12.7731 4.49327,12.4933 L12.4933,4.49327 C12.7731,4.21341 13.2269,4.21341 13.5067,4.49327 C13.7866,4.77313 13.7866,5.22687 13.5067,5.50673 Z " fill-rule="nonzero" vector-effect="none"/>
        </g>
    </g>
</svg>
