<?xml version='1.0' encoding='UTF-8' standalone='no'?>
<svg baseProfile="tiny" height="5.29167mm" version="1.2" viewBox="0 0 40 40" width="5.29167mm" xmlns="http://www.w3.org/2000/svg" xmlns:xlink="http://www.w3.org/1999/xlink">
    <style id="current-color-scheme" type="text/css">.ColorScheme-Text {color:#232629;}</style>
    <title>Qt SVG Document</title>
    <desc>Auto-generated by klassy-settings</desc>
    <defs/>
    <g fill="none" fill-rule="evenodd" stroke="black" stroke-linecap="square" stroke-linejoin="bevel" stroke-width="1">
        <g class="ColorScheme-Text" fill="#da0016" fill-opacity="0.863996" font-family="Noto Sans" font-size="26.6667" font-style="normal" font-weight="400" stroke="none" transform="matrix(2.5,0,0,2.5,0,0)">
            <path d="M2,3.2 C2,2.53726 2.53726,2 3.2,2 L12.8,2 C13.4627,2 14,2.53726 14,3.2 L14,12.8 C14,13.4627 13.4627,14 12.8,14 L3.2,14 C2.53726,14 2,13.4627 2,12.8 L2,3.2 Z " fill-rule="evenodd" vector-effect="none"/>
        </g>
        <g class="ColorScheme-Text" fill="#ffffff" fill-opacity="1" font-family="Noto Sans" font-size="26.6667" font-style="normal" font-weight="400" stroke="none" transform="matrix(2.22222,0,0,2.22222,0,0)">
            <path d="M5.47777,4.52223 L13.4778,12.5222 C13.7416,12.7861 13.7416,13.2139 13.4778,13.4778 C13.2139,13.7416 12.7861,13.7416 12.5222,13.4778 L4.52223,5.47777 C4.25836,5.21391 4.25836,4.78609 4.52223,4.52223 C4.78609,4.25836 5.21391,4.25836 5.47777,4.52223 Z " fill-rule="nonzero" vector-effect="none"/>
            <path d="M13.4778,5.47777 L5.47777,13.4778 C5.21391,13.7416 4.78609,13.7416 4.52223,13.4778 C4.25836,13.2139 4.25836,12.7861 4.52223,12.5222 L12.5222,4.52223 C12.7861,4.25836 13.2139,4.25836 13.4778,4.52223 C13.7416,4.78609 13.7416,5.21391 13.4778,5.47777 Z " fill-rule="nonzero" vector-effect="none"/>
        </g>
    </g>
</svg>
