<?xml version='1.0' encoding='UTF-8' standalone='no'?>
<svg baseProfile="tiny" height="5.29167mm" version="1.2" viewBox="0 0 35 35" width="5.29167mm" xmlns="http://www.w3.org/2000/svg" xmlns:xlink="http://www.w3.org/1999/xlink">
    <style id="current-color-scheme" type="text/css">.ColorScheme-Text {color:#f67400;}</style>
    <title>Qt SVG Document</title>
    <desc>Auto-generated by Klassy window decoration</desc>
    <defs/>
    <g fill="none" fill-rule="evenodd" stroke="black" stroke-linecap="square" stroke-linejoin="bevel" stroke-width="1">
        <g fill="#f67400" fill-opacity="0.349996" font-family="Noto Sans" font-size="23.3333" font-style="normal" font-weight="400" stroke="none" transform="matrix(1.94444,0,0,1.94444,14.5,15.5)">
            <rect height="3.08571" width="3.08571" x="0" y="0"/>
        </g>
        <g fill="#f67400" fill-opacity="0.809995" font-family="Noto Sans" font-size="23.3333" font-style="normal" font-weight="400" stroke="none" transform="matrix(1.94444,0,0,1.94444,14.5,15.5)">
            <path d="M0,-0.5148 L3.08571,-0.5148 L3.60051,0 L3.60051,3.08571 L3.08571,3.60051 L0,3.60051 L-0.5148,3.08571 L-0.5148,0 L0,-0.5148 M0.5148,0 L0.5148,3.08571 L0,3.08571 L0,2.57091 L3.08571,2.57091 L3.08571,3.08571 L2.57091,3.08571 L2.57091,0 L3.08571,0 L3.08571,0.5148 L0,0.5148 L0,0 L0.5148,0" fill-rule="nonzero" vector-effect="none"/>
            <path d="M2.57091,0.5148 L2.57091,-3.60051 L6.68623,0.5148 L2.57091,0.5148" fill-rule="evenodd" vector-effect="none"/>
            <path d="M0.5148,2.57091 L-3.60051,2.57091 L0.5148,6.68623 L0.5148,2.57091" fill-rule="evenodd" vector-effect="none"/>
        </g>
    </g>
</svg>
