<?xml version='1.0' encoding='UTF-8' standalone='no'?>
<svg baseProfile="tiny" height="5.29167mm" version="1.2" viewBox="0 0 35 35" width="5.29167mm" xmlns="http://www.w3.org/2000/svg" xmlns:xlink="http://www.w3.org/1999/xlink">
    <style id="current-color-scheme" type="text/css">.ColorScheme-Text {color:#232629;}</style>
    <title>Qt SVG Document</title>
    <desc>Auto-generated by klassy-settings</desc>
    <defs/>
    <g fill="none" fill-rule="evenodd" stroke="black" stroke-linecap="square" stroke-linejoin="bevel" stroke-width="1">
        <g class="ColorScheme-Text" fill="#da0016" fill-opacity="0.863996" font-family="Noto Sans" font-size="23.3333" font-style="normal" font-weight="400" stroke="none" transform="matrix(2.1875,0,0,2.1875,0,0)">
            <path d="M2,3.2 C2,2.53726 2.53726,2 3.2,2 L12.8,2 C13.4627,2 14,2.53726 14,3.2 L14,12.8 C14,13.4627 13.4627,14 12.8,14 L3.2,14 C2.53726,14 2,13.4627 2,12.8 L2,3.2 Z " fill-rule="evenodd" vector-effect="none"/>
        </g>
        <g class="ColorScheme-Text" fill="#ffffff" fill-opacity="1" font-family="Noto Sans" font-size="23.3333" font-style="normal" font-weight="400" stroke="none" transform="matrix(1.94444,0,0,1.94444,0,0)">
            <path d="M5.54603,4.45397 L13.546,12.454 C13.8476,12.7555 13.8476,13.2445 13.546,13.546 C13.2445,13.8476 12.7555,13.8476 12.454,13.546 L4.45397,5.54603 C4.15241,5.24446 4.15241,4.75554 4.45397,4.45397 C4.75554,4.15241 5.24446,4.15241 5.54603,4.45397 Z " fill-rule="nonzero" vector-effect="none"/>
            <path d="M13.546,5.54603 L5.54603,13.546 C5.24446,13.8476 4.75554,13.8476 4.45397,13.546 C4.15241,13.2445 4.15241,12.7555 4.45397,12.454 L12.454,4.45397 C12.7555,4.15241 13.2445,4.15241 13.546,4.45397 C13.8476,4.75554 13.8476,5.24446 13.546,5.54603 Z " fill-rule="nonzero" vector-effect="none"/>
        </g>
    </g>
</svg>
