<?xml version='1.0' encoding='UTF-8' standalone='no'?>
<svg baseProfile="tiny" height="5.89643mm" version="1.2" viewBox="0 0 39 39" width="5.89643mm" xmlns="http://www.w3.org/2000/svg" xmlns:xlink="http://www.w3.org/1999/xlink">
    <style id="current-color-scheme" type="text/css">.ColorScheme-Text {color:#fcfcfc;}</style>
    <title>Qt SVG Document</title>
    <desc>Auto-generated by klassy-settings</desc>
    <defs/>
    <g fill="none" fill-rule="evenodd" stroke="black" stroke-linecap="square" stroke-linejoin="bevel" stroke-width="1">
        <g class="ColorScheme-Text" fill="currentColor" fill-opacity="0.949996" font-family="Noto Sans" font-size="23.3333" font-style="normal" font-weight="400" stroke="none" transform="matrix(2.16667,0,0,2.16667,0,0)">
            <path d="M4.38462,3.69162 L14.0769,3.69162 L14.7699,3.69162 L14.7699,4.38462 L14.7699,14.0769 L14.7699,14.7699 L14.0769,14.7699 L4.38462,14.7699 L3.69162,14.7699 L3.69162,14.0769 L3.69162,4.38462 L3.69162,3.69162 L4.38462,3.69162 M5.07762,4.38462 L5.07762,14.0769 L4.38462,14.0769 L4.38462,13.3839 L14.0769,13.3839 L14.0769,14.0769 L13.3839,14.0769 L13.3839,4.38462 L14.0769,4.38462 L14.0769,5.07762 L4.38462,5.07762 L4.38462,4.38462 L5.07762,4.38462" fill-rule="nonzero" vector-effect="none"/>
        </g>
    </g>
</svg>
