<?xml version='1.0' encoding='UTF-8' standalone='no'?>
<svg baseProfile="tiny" height="5.29167mm" version="1.2" viewBox="0 0 40 40" width="5.29167mm" xmlns="http://www.w3.org/2000/svg" xmlns:xlink="http://www.w3.org/1999/xlink">
    <style id="current-color-scheme" type="text/css">.ColorScheme-Text {color:#f67400;}</style>
    <title>Qt SVG Document</title>
    <desc>Auto-generated by Klassy window decoration</desc>
    <defs/>
    <g fill="none" fill-rule="evenodd" stroke="black" stroke-linecap="square" stroke-linejoin="bevel" stroke-width="1">
        <g fill="#f67400" fill-opacity="0.349996" font-family="Noto Sans" font-size="26.6667" font-style="normal" font-weight="400" stroke="none" transform="matrix(2.22222,0,0,2.22222,16.5,16.5)">
            <rect height="3.6" width="3.6" x="0" y="0"/>
        </g>
        <g fill="#f67400" fill-opacity="0.809995" font-family="Noto Sans" font-size="26.6667" font-style="normal" font-weight="400" stroke="none" transform="matrix(2.22222,0,0,2.22222,16.5,16.5)">
            <path d="M0,-0.45045 L3.6,-0.45045 L4.05045,0 L4.05045,3.6 L3.6,4.05045 L0,4.05045 L-0.45045,3.6 L-0.45045,0 L0,-0.45045 M0.45045,0 L0.45045,3.6 L0,3.6 L0,3.14955 L3.6,3.14955 L3.6,3.6 L3.14955,3.6 L3.14955,0 L3.6,0 L3.6,0.45045 L0,0.45045 L0,0 L0.45045,0" fill-rule="nonzero" vector-effect="none"/>
            <path d="M3.14955,0.45045 L3.14955,-4.05045 L7.65045,0.45045 L3.14955,0.45045" fill-rule="evenodd" vector-effect="none"/>
            <path d="M0.45045,3.14955 L-4.05045,3.14955 L0.45045,7.65045 L0.45045,3.14955" fill-rule="evenodd" vector-effect="none"/>
        </g>
    </g>
</svg>
