<?xml version='1.0' encoding='UTF-8' standalone='no'?>
<svg baseProfile="tiny" height="8.46667mm" version="1.2" viewBox="0 0 80 80" width="8.46667mm" xmlns="http://www.w3.org/2000/svg" xmlns:xlink="http://www.w3.org/1999/xlink">
    <style id="current-color-scheme" type="text/css">.ColorScheme-Text {color:#f67400;}</style>
    <title>Qt SVG Document</title>
    <desc>Auto-generated by Klassy window decoration</desc>
    <defs/>
    <g fill="none" fill-rule="evenodd" stroke="black" stroke-linecap="square" stroke-linejoin="bevel" stroke-width="1">
        <g fill="#f67400" fill-opacity="0.349996" font-family="Noto Sans" font-size="33.3333" font-style="normal" font-weight="400" stroke="none" transform="matrix(4.44444,0,0,4.44444,33.5,33.5)">
            <rect height="3.15" width="3.15" x="0" y="0"/>
        </g>
        <g fill="#f67400" fill-opacity="0.809995" font-family="Noto Sans" font-size="33.3333" font-style="normal" font-weight="400" stroke="none" transform="matrix(4.44444,0,0,4.44444,33.5,33.5)">
            <path d="M0,-0.45045 L3.15,-0.45045 L3.60045,0 L3.60045,3.15 L3.15,3.60045 L0,3.60045 L-0.45045,3.15 L-0.45045,0 L0,-0.45045 M0.45045,0 L0.45045,3.15 L0,3.15 L0,2.69955 L3.15,2.69955 L3.15,3.15 L2.69955,3.15 L2.69955,0 L3.15,0 L3.15,0.45045 L0,0.45045 L0,0 L0.45045,0" fill-rule="nonzero" vector-effect="none"/>
            <path d="M2.69955,0.45045 L2.69955,-3.60045 L6.75045,0.45045 L2.69955,0.45045" fill-rule="evenodd" vector-effect="none"/>
            <path d="M0.45045,2.69955 L-3.60045,2.69955 L0.45045,6.75045 L0.45045,2.69955" fill-rule="evenodd" vector-effect="none"/>
        </g>
    </g>
</svg>
