<?xml version='1.0' encoding='UTF-8' standalone='no'?>
<svg baseProfile="tiny" height="12.7mm" version="1.2" viewBox="0 0 84 84" width="12.7mm" xmlns="http://www.w3.org/2000/svg" xmlns:xlink="http://www.w3.org/1999/xlink">
    <style id="current-color-scheme" type="text/css">.ColorScheme-Text {color:#232629;}</style>
    <title>Qt SVG Document</title>
    <desc>Auto-generated by klassy-settings</desc>
    <defs/>
    <g fill="none" fill-rule="evenodd" stroke="black" stroke-linecap="square" stroke-linejoin="bevel" stroke-width="1">
        <g class="ColorScheme-Text" fill="currentColor" fill-opacity="0.949996" font-family="Noto Sans" font-size="23.3333" font-style="normal" font-weight="400" stroke="none" transform="matrix(4.66667,0,0,4.66667,0,0)">
            <path d="M4.39286,3.64211 L13.6071,3.64211 L14.3579,3.64211 L14.3579,4.39286 L14.3579,13.6071 L14.3579,14.3579 L13.6071,14.3579 L4.39286,14.3579 L3.64211,14.3579 L3.64211,13.6071 L3.64211,4.39286 L3.64211,3.64211 L4.39286,3.64211 Z M5.14361,4.39286 L5.14361,13.6071 L4.39286,13.6071 L4.39286,12.8564 L13.6071,12.8564 L13.6071,13.6071 L12.8564,13.6071 L12.8564,4.39286 L13.6071,4.39286 L13.6071,5.14361 L4.39286,5.14361 L4.39286,4.39286 L5.14361,4.39286 Z " fill-rule="nonzero" vector-effect="none"/>
        </g>
    </g>
</svg>
