<?xml version='1.0' encoding='UTF-8' standalone='no'?>
<svg baseProfile="tiny" height="4.7625mm" version="1.2" viewBox="0 0 27 27" width="4.7625mm" xmlns="http://www.w3.org/2000/svg" xmlns:xlink="http://www.w3.org/1999/xlink">
    <style id="current-color-scheme" type="text/css">.ColorScheme-Text {color:#fcfcfc;}</style>
    <title>Qt SVG Document</title>
    <desc>Auto-generated by klassy-settings</desc>
    <defs/>
    <g fill="none" fill-rule="evenodd" stroke="black" stroke-linecap="square" stroke-linejoin="bevel" stroke-width="1">
        <g class="ColorScheme-Text" fill="#da0016" fill-opacity="0.863996" font-family="Noto Sans" font-size="20" font-style="normal" font-weight="400" stroke="none" transform="matrix(1.6875,0,0,1.6875,0,0)">
            <path d="M2,3.2 C2,2.53726 2.53726,2 3.2,2 L12.8,2 C13.4627,2 14,2.53726 14,3.2 L14,12.8 C14,13.4627 13.4627,14 12.8,14 L3.2,14 C2.53726,14 2,13.4627 2,12.8 L2,3.2 Z " fill-rule="evenodd" vector-effect="none"/>
        </g>
        <g class="ColorScheme-Text" fill="#ffffff" fill-opacity="1" font-family="Noto Sans" font-size="20" font-style="normal" font-weight="400" stroke="none" transform="matrix(1.5,0,0,1.5,0,0)">
            <path d="M5.47188,4.52812 L13.4719,12.5281 C13.7325,12.7887 13.7325,13.2113 13.4719,13.4719 C13.2113,13.7325 12.7887,13.7325 12.5281,13.4719 L4.52812,5.47188 C4.26751,5.21127 4.26751,4.78873 4.52812,4.52812 C4.78873,4.26751 5.21127,4.26751 5.47188,4.52812 Z " fill-rule="nonzero" vector-effect="none"/>
            <path d="M13.4719,5.47188 L5.47188,13.4719 C5.21127,13.7325 4.78873,13.7325 4.52812,13.4719 C4.26751,13.2113 4.26751,12.7887 4.52812,12.5281 L12.5281,4.52812 C12.7887,4.26751 13.2113,4.26751 13.4719,4.52812 C13.7325,4.78873 13.7325,5.21127 13.4719,5.47188 Z " fill-rule="nonzero" vector-effect="none"/>
        </g>
    </g>
</svg>
