<?xml version="1.0" encoding="UTF-8" standalone="no"?>
<svg width="4.23333mm" height="4.23333mm"
 viewBox="0 0 24 24"
 xmlns="http://www.w3.org/2000/svg" xmlns:xlink="http://www.w3.org/1999/xlink" version="1.2" baseProfile="tiny"    <style id="current-color-scheme" type="text/css">.ColorScheme-Text {color:#fcfcfc;}</style>
    <title>Qt SVG Document</title>
    <desc>Auto-generated by Klassy window decoration</desc>
    <defs/>
    <g fill="none" fill-rule="evenodd" stroke="black" stroke-linecap="square" stroke-linejoin="bevel" stroke-width="1">
        <g class="ColorScheme-Text" fill="currentColor" fill-opacity="1" font-family="Noto Sans" font-size="20" font-style="normal" font-weight="400" stroke="none" transform="matrix(1.33333,0,0,1.33333,0,0)">
            <path d="M5.03086,3.96914 L14.0309,12.9691 C14.324,13.2623 14.324,13.7377 14.0309,14.0309 C13.7377,14.324 13.2623,14.324 12.9691,14.0309 L3.96914,5.03086 C3.67595,4.73767 3.67595,4.26233 3.96914,3.96914 C4.26233,3.67595 4.73767,3.67595 5.03086,3.96914 " fill-rule="nonzero" vector-effect="none"/>
            <path d="M14.0309,5.03086 L5.03086,14.0309 C4.73767,14.324 4.26233,14.324 3.96914,14.0309 C3.67595,13.7377 3.67595,13.2623 3.96914,12.9691 L12.9691,3.96914 C13.2623,3.67595 13.7377,3.67595 14.0309,3.96914 C14.324,4.26233 14.324,4.73767 14.0309,5.03086 " fill-rule="nonzero" vector-effect="none"/>
        </g>
    </g>
</svg>
mal" 
>
<path vector-effect="none" fill-rule="nonzero" d="M5.03086,3.96914 L14.0309,12.9691 C14.324,13.2623 14.324,13.7377 14.0309,14.0309 C13.7377,14.324 13.2623,14.324 12.9691,14.0309 L3.96914,5.03086 C3.67595,4.73767 3.67595,4.26233 3.96914,3.96914 C4.26233,3.67595 4.73767,3.67595 5.03086,3.96914 "/>
<path vector-effect="none" fill-rule="nonzero" d="M14.0309,5.03086 L5.03086,14.0309 C4.73767,14.324 4.26233,14.324 3.96914,14.0309 C3.67595,13.7377 3.67595,13.2623 3.96914,12.9691 L12.9691,3.96914 C13.2623,3.67595 13.7377,3.67595 14.0309,3.96914 C14.324,4.26233 14.324,4.73767 14.0309,5.03086 "/>
</g>

<g fill="none" stroke="#fcfcfc" stroke-opacity="1" stroke-width="1.001" stroke-linecap="square" stroke-linejoin="bevel" transform="matrix(1.33333,0,0,1.33333,0,0)"
font-family="Noto Sans" font-size="20" font-weight="400" font-style="normal" 
>
</g>
</g>
</svg>
